<?xml version="1.0" encoding="utf-8"?>
<!-- Svg Vector Icons : http://www.onlinewebfonts.com/icon -->
<!DOCTYPE svg PUBLIC "-//W3C//DTD SVG 1.1//EN" "http://www.w3.org/Graphics/SVG/1.1/DTD/svg11.dtd">
<svg version="1.1" xmlns="http://www.w3.org/2000/svg" xmlns:xlink="http://www.w3.org/1999/xlink" x="0px" y="0px" viewBox="0 0 256 256" enable-background="new 0 0 256 256" xml:space="preserve">
<metadata> Svg Vector Icons : http://www.onlinewebfonts.com/icon </metadata>
<g><g><g><path fill="#000000" d="M110.1,231.3c52.4,0,98.6-29,98.6-77.4c0-17.6-8.3-28.5-11.7-34.1c-2.9-3.4-2.9-6.3,4-6.8c27-4,44.9-18.8,44.9-47.2c0-15.4-12.7-33.9-35.7-33.9c-10.9,0-24.3,10.5-24.3,21.9c0,6.3,6.5,13.7,15.7,13.7c10.4,0,16.2-10.9,14.5-15.5c-0.6-2.8-2.4-6.3,1.6-6.3c7.5,0,16.1,9.7,16.1,18.8c0,15.9-15,26.9-38.6,26.9c-12.7,0-23.6-7.8-35.7-7.8c-30.5,0-48.4,24.2-48.4,45.2c0,23.9,18.4,35.3,32.2,35.3c15.5,0,20.1-9.1,20.1-16.5c0-8.5-5.2-14.2-16.1-14.2c-8.6,0-12.7,9.1-12.1,13.7c0.6,2.3-1.2,4-2.9,4c-2.3,0-9.2-7.4-9.2-17.1c0-6.8,4.6-29.3,28.8-29.3c25.9,0,43.9,23.6,43.9,43c0,27.3-30.7,56.3-83.1,56.3c-52.4,0-82.3-23.9-82.3-58.6c0-15.9,6.9-30.7,15.5-37c3.5-2.3,5.2-1.7,6.9,1.1c4,2.8,13.2,10.5,19,10.5c7.5,0,11.5-9.4,11.5-17.4c0-6.8-8-11.5-15-11.5s-11.5,4.1-14.4,5.2c-4-6.3-6.3-14.2-6.3-20.5c0-18.2,13.2-29.6,25.9-29.6c10.9,0,20.1,8.6,18.4,19.4c-0.6,2.8-0.6,5.1,0.6,5.1c4.6,0,15-6.8,15-19.4c0-17.7-13.2-26.8-30.5-26.8c-28.2,0-45.5,19.9-45.5,41c0,12.5,4.6,23.9,12.1,33.6c-11.5,5.1-34,24.5-34,58.6C10,186.9,30.2,231.3,110.1,231.3L110.1,231.3z"/></g></g></g>
</svg>